<svg width="62" height="63" viewBox="0 0 62 63" fill="none" xmlns="http://www.w3.org/2000/svg">
<path d="M31 61.5996C47.5685 61.5996 61 48.1682 61 31.5996C61 15.0311 47.5685 1.59961 31 1.59961C14.4315 1.59961 1 15.0311 1 31.5996C1 48.1682 14.4315 61.5996 31 61.5996Z" stroke="#FF8900" stroke-width="1.5" stroke-miterlimit="10"/>
<path d="M31 34.0996C36.5228 34.0996 41 29.6225 41 24.0996C41 18.5768 36.5228 14.0996 31 14.0996C25.4772 14.0996 21 18.5768 21 24.0996C21 29.6225 25.4772 34.0996 31 34.0996Z" stroke="#FF8900" stroke-width="1.5" stroke-miterlimit="10"/>
<path d="M7 49.5996C12.473 43.5276 21.187 39.5996 31 39.5996C40.813 39.5996 49.528 43.5266 55 49.5996" stroke="#FF8900" stroke-width="1.5" stroke-miterlimit="10"/>
</svg>
