<svg width="62" height="63" viewBox="0 0 62 63" fill="none" xmlns="http://www.w3.org/2000/svg">
<path d="M30.9995 61.5996C47.5681 61.5996 60.9995 48.1682 60.9995 31.5996C60.9995 15.0311 47.5681 1.59961 30.9995 1.59961C14.431 1.59961 0.999512 15.0311 0.999512 31.5996C0.999512 48.1682 14.431 61.5996 30.9995 61.5996Z" stroke="#FF8900" stroke-width="1.5" stroke-miterlimit="10"/>
<path d="M15.9995 21.6309L30.9995 31.0999L45.9995 21.6309" stroke="#FF8900" stroke-width="1.5" stroke-miterlimit="10"/>
<path d="M43.4995 19.5996H18.4995C17.1188 19.5996 15.9995 20.7189 15.9995 22.0996V41.0996C15.9995 42.4803 17.1188 43.5996 18.4995 43.5996H43.4995C44.8802 43.5996 45.9995 42.4803 45.9995 41.0996V22.0996C45.9995 20.7189 44.8802 19.5996 43.4995 19.5996Z" stroke="#FF8900" stroke-width="1.5" stroke-miterlimit="10"/>
</svg>
