<svg width="25" height="25" viewBox="0 0 25 25" fill="none" xmlns="http://www.w3.org/2000/svg">
    <path d="M15.8052 13.6988C16.7856 12.9274 17.5012 11.8697 17.8525 10.6727C18.2037 9.47573 18.1731 8.19904 17.765 7.02024C17.3569 5.84144 16.5915 4.81916 15.5753 4.09563C14.5591 3.37209 13.3427 2.98328 12.0952 2.98328C10.8478 2.98328 9.63133 3.37209 8.61514 4.09563C7.59896 4.81916 6.83356 5.84144 6.42542 7.02024C6.01729 8.19904 5.98672 9.47573 6.33797 10.6727C6.68922 11.8697 7.40482 12.9274 8.38521 13.6988C6.70529 14.3718 5.2395 15.4881 4.1441 16.9287C3.04871 18.3693 2.36477 20.0801 2.16521 21.8788C2.15077 22.0101 2.16233 22.143 2.19924 22.2698C2.23615 22.3967 2.29768 22.515 2.38032 22.6181C2.54723 22.8263 2.79 22.9596 3.05521 22.9888C3.32043 23.0179 3.58637 22.9406 3.79454 22.7737C4.0027 22.6068 4.13604 22.364 4.16521 22.0988C4.3848 20.144 5.3169 18.3386 6.78343 17.0276C8.24996 15.7165 10.1481 14.9918 12.1152 14.9918C14.0823 14.9918 15.9805 15.7165 17.447 17.0276C18.9135 18.3386 19.8456 20.144 20.0652 22.0988C20.0924 22.3445 20.2096 22.5714 20.3943 22.7358C20.579 22.9001 20.818 22.9903 21.0652 22.9888H21.1752C21.4373 22.9586 21.6769 22.8261 21.8418 22.62C22.0066 22.414 22.0833 22.1511 22.0552 21.8888C21.8547 20.085 21.1671 18.3698 20.0661 16.927C18.965 15.4842 17.4921 14.3683 15.8052 13.6988ZM12.0952 12.9888C11.3041 12.9888 10.5307 12.7542 9.87293 12.3147C9.21513 11.8751 8.70244 11.2504 8.39969 10.5195C8.09694 9.7886 8.01773 8.98434 8.17207 8.20841C8.32641 7.43249 8.70737 6.71975 9.26678 6.16034C9.82619 5.60093 10.5389 5.21997 11.3149 5.06563C12.0908 4.91129 12.895 4.9905 13.6259 5.29325C14.3569 5.596 14.9816 6.10869 15.4211 6.76649C15.8606 7.42429 16.0952 8.19765 16.0952 8.98877C16.0952 10.0496 15.6738 11.0671 14.9236 11.8172C14.1735 12.5673 13.1561 12.9888 12.0952 12.9888Z" fill="#2E2F3C"/>
</svg>
