<svg width="62" height="63" viewBox="0 0 62 63" fill="none" xmlns="http://www.w3.org/2000/svg">
<path d="M31 61.5996C47.5685 61.5996 61 48.1682 61 31.5996C61 15.0311 47.5685 1.59961 31 1.59961C14.4315 1.59961 1 15.0311 1 31.5996C1 48.1682 14.4315 61.5996 31 61.5996Z" stroke="#FF8900" stroke-width="1.5" stroke-miterlimit="10"/>
<path d="M43.0601 37.0626L38.8171 36.5786C38.3168 36.5215 37.81 36.578 37.3346 36.7439C36.8592 36.9097 36.4273 37.1807 36.0711 37.5366L33.3341 40.2736C33.2385 40.3696 33.1148 40.4326 32.9809 40.4533C32.8471 40.4739 32.7101 40.4513 32.5901 40.3886C28.1749 38.0385 24.5612 34.4247 22.2111 30.0096C22.1485 29.8898 22.1258 29.7531 22.1463 29.6194C22.1668 29.4858 22.2294 29.3622 22.3251 29.2666L25.0821 26.5096C25.4379 26.1539 25.7088 25.7223 25.8743 25.2471C26.0399 24.7719 26.0958 24.2655 26.0381 23.7656L25.5541 19.5566C25.4591 18.7418 25.068 17.9904 24.4551 17.4451C23.8423 16.8999 23.0504 16.599 22.2301 16.5996H19.3401C18.88 16.6014 18.4252 16.6978 18.0039 16.8829C17.5827 17.0679 17.2041 17.3377 16.8915 17.6753C16.579 18.013 16.3393 18.4113 16.1873 18.8456C16.0353 19.2799 15.9743 19.7408 16.0081 20.1996C16.4736 27.0458 19.4037 33.4916 24.2559 38.3438C29.1081 43.196 35.5538 46.1261 42.4001 46.5916C42.8589 46.6254 43.3198 46.5643 43.7541 46.4124C44.1883 46.2604 44.5867 46.0207 44.9243 45.7081C45.262 45.3956 45.5317 45.017 45.7168 44.5957C45.9019 44.1745 45.9983 43.7197 46.0001 43.2596V40.3696C46.0044 39.5528 45.7066 38.7631 45.1639 38.1526C44.6211 37.5421 43.8718 37.1539 43.0601 37.0626V37.0626Z" stroke="#FF8900" stroke-width="1.5" stroke-linecap="round" stroke-linejoin="round"/>
</svg>
