<svg width="21" height="19" viewBox="0 0 21 19" fill="none" xmlns="http://www.w3.org/2000/svg">
<path d="M14.29 6.71019C14.383 6.80391 14.4936 6.87831 14.6154 6.92908C14.7373 6.97985 14.868 7.00598 15 7.00598C15.132 7.00598 15.2627 6.97985 15.3846 6.92908C15.5064 6.87831 15.617 6.80391 15.71 6.71019L19.71 2.71019C19.8983 2.52188 20.0041 2.26649 20.0041 2.00019C20.0041 1.73388 19.8983 1.47849 19.71 1.29019C19.5217 1.10188 19.2663 0.996094 19 0.996094C18.7337 0.996094 18.4783 1.10188 18.29 1.29019L15 4.59019L13.71 3.29019C13.6168 3.19695 13.5061 3.12299 13.3842 3.07253C13.2624 3.02207 13.1319 2.99609 13 2.99609C12.7337 2.99609 12.4783 3.10188 12.29 3.29019C12.1968 3.38342 12.1228 3.49411 12.0723 3.61594C12.0219 3.73776 11.9959 3.86833 11.9959 4.00019C11.9959 4.26649 12.1017 4.52188 12.29 4.71019L14.29 6.71019ZM19 6.00019C18.7348 6.00019 18.4804 6.10554 18.2929 6.29308C18.1054 6.48062 18 6.73497 18 7.00019V16.0002C18 16.2654 17.8946 16.5198 17.7071 16.7073C17.5196 16.8948 17.2652 17.0002 17 17.0002H3C2.73478 17.0002 2.48043 16.8948 2.29289 16.7073C2.10536 16.5198 2 16.2654 2 16.0002V6.41019L7.88 12.3002C8.44125 12.8568 9.19951 13.1695 9.99 13.1702C10.8004 13.166 11.5764 12.8427 12.15 12.2702L13.87 10.5502C14.0583 10.3619 14.1641 10.1065 14.1641 9.84019C14.1641 9.57388 14.0583 9.31849 13.87 9.13019C13.6817 8.94188 13.4263 8.83609 13.16 8.83609C12.8937 8.83609 12.6383 8.94188 12.45 9.13019L10.7 10.8802C10.5131 11.0634 10.2618 11.166 10 11.166C9.73825 11.166 9.48693 11.0634 9.3 10.8802L3.41 5.00019H9C9.26522 5.00019 9.51957 4.89483 9.70711 4.70729C9.89464 4.51976 10 4.2654 10 4.00019C10 3.73497 9.89464 3.48062 9.70711 3.29308C9.51957 3.10554 9.26522 3.00019 9 3.00019H3C2.20435 3.00019 1.44129 3.31626 0.87868 3.87887C0.316071 4.44147 0 5.20454 0 6.00019L0 16.0002C0 16.7958 0.316071 17.5589 0.87868 18.1215C1.44129 18.6841 2.20435 19.0002 3 19.0002H17C17.7956 19.0002 18.5587 18.6841 19.1213 18.1215C19.6839 17.5589 20 16.7958 20 16.0002V7.00019C20 6.73497 19.8946 6.48062 19.7071 6.29308C19.5196 6.10554 19.2652 6.00019 19 6.00019Z" fill="white"/>
</svg>
